<?xml version="1.0" standalone="no"?>
<!DOCTYPE svg PUBLIC "-//W3C//DTD SVG 20010904//EN"
 "http://www.w3.org/TR/2001/REC-SVG-20010904/DTD/svg10.dtd">
<svg version="1.0" xmlns="http://www.w3.org/2000/svg"
 width="2048.000000pt" height="2048.000000pt" viewBox="0 0 2048.000000 2048.000000"
 preserveAspectRatio="xMidYMid meet">

<g transform="translate(0.000000,2048.000000) scale(0.100000,-0.100000)"
fill="#000000" stroke="none">
<path d="M8212 17416 c-109 -18 -222 -48 -222 -59 0 -4 -5 -5 -10 -2 -13 8
-142 -34 -135 -44 5 -10 -62 -41 -96 -45 -56 -7 -223 -105 -369 -218 -109 -84
-304 -284 -296 -304 3 -9 1 -12 -4 -9 -6 3 -10 2 -10 -2 0 -5 -19 -28 -42 -52
-24 -25 -37 -41 -29 -37 8 6 7 0 -4 -18 -10 -14 -21 -26 -26 -26 -16 0 -95
-115 -135 -197 -22 -43 -42 -80 -47 -81 -4 -2 -5 -7 -2 -12 3 -4 -11 -8 -30
-7 -19 1 -35 5 -35 10 0 5 -7 7 -15 3 -8 -3 -15 -2 -15 3 0 16 -196 52 -342
62 -217 14 -388 2 -580 -43 -49 -11 -88 -23 -88 -28 0 -4 -19 -10 -42 -12 -54
-7 -232 -83 -333 -143 -115 -67 -189 -127 -303 -243 -296 -301 -481 -757 -499
-1233 l-6 -146 -91 -7 c-175 -13 -415 -68 -579 -132 -241 -95 -447 -222 -601
-372 -236 -229 -378 -496 -443 -831 -23 -119 -26 -162 -27 -346 0 -128 4 -245
13 -300 18 -122 64 -314 96 -405 26 -72 117 -263 155 -325 l19 -31 -85 -124
c-321 -469 -416 -1066 -248 -1566 138 -415 418 -737 814 -939 208 -105 475
-184 684 -201 l82 -6 58 -114 c182 -359 431 -615 752 -774 253 -125 429 -163
759 -164 139 -1 250 4 300 12 102 17 262 57 329 82 28 11 52 20 53 20 1 0 33
-39 71 -87 175 -219 392 -387 674 -523 161 -76 311 -127 503 -167 121 -25 147
-27 375 -28 262 0 332 7 555 55 145 31 261 68 409 130 55 22 102 37 106 33 3
-4 41 -60 83 -125 139 -209 361 -459 597 -672 190 -172 226 -201 415 -343 226
-169 379 -271 755 -506 318 -198 323 -203 452 -437 156 -281 402 -737 568
-1050 95 -179 210 -395 255 -480 45 -85 131 -247 190 -360 60 -113 135 -256
168 -317 l60 -113 1073 0 c591 0 1074 2 1074 4 0 2 -24 105 -54 227 -149 613
-300 1250 -376 1584 -32 143 -86 379 -120 523 -34 145 -60 266 -57 268 2 2 42
9 88 15 331 40 736 183 1026 360 243 148 540 426 695 649 207 298 339 631 394
1000 19 125 26 495 11 647 l-7 82 62 32 c81 41 253 156 345 231 93 75 218 211
299 324 165 231 271 484 331 792 24 123 27 161 27 362 1 238 -8 318 -60 555
-55 248 -169 515 -319 750 l-76 119 30 106 c72 248 101 428 108 660 6 205 -4
322 -44 520 -66 328 -217 639 -433 893 -214 252 -545 471 -878 579 l-129 42
-16 170 c-39 394 -128 669 -299 926 -70 105 -254 304 -275 296 -7 -3 -13 0
-13 8 0 27 -171 136 -314 200 -228 102 -381 130 -701 130 -259 1 -356 -12
-540 -68 -43 -14 -81 -23 -83 -21 -2 2 -25 52 -51 112 -96 222 -319 561 -359
546 -9 -4 -13 -2 -9 4 3 5 0 10 -7 10 -8 0 7 -25 32 -56 122 -150 315 -486
353 -615 9 -33 18 -45 28 -41 30 12 290 74 351 84 437 72 890 -22 1225 -255
90 -63 234 -208 307 -310 68 -95 169 -286 202 -381 60 -171 103 -391 125 -641
6 -62 13 -117 16 -121 2 -5 20 -12 38 -15 32 -6 233 -82 328 -124 76 -33 329
-190 399 -247 82 -67 250 -240 312 -321 312 -408 455 -940 393 -1466 -26 -223
-112 -558 -144 -558 -13 0 -13 -2 -2 -9 8 -5 11 -16 6 -30 -4 -15 -1 -29 10
-41 10 -11 14 -24 9 -31 -4 -7 -3 -10 4 -5 8 5 87 -103 79 -110 -6 -6 -52 -7
-55 -1 -1 3 -14 19 -27 33 -14 15 -28 38 -31 51 -4 13 -11 20 -17 16 -7 -4 -8
0 -3 13 4 10 4 15 0 11 -4 -4 -13 2 -21 13 -17 25 -7 69 21 93 13 11 15 15 5
12 -15 -6 -15 1 -2 67 7 40 11 83 8 96 -5 20 -8 21 -28 11 -20 -11 -21 -11 -8
5 13 15 11 16 -17 11 -18 -3 -32 -2 -32 2 0 5 -33 9 -73 11 -107 3 -131 6
-138 15 -3 5 -17 -28 -29 -72 l-24 -81 -215 -1 c-119 -1 -258 -3 -310 -5 -90
-4 -129 5 -115 27 3 5 -7 10 -23 11 -58 4 171 14 382 16 121 1 223 6 227 10
13 13 50 176 69 302 49 323 31 610 -52 863 -161 484 -559 853 -1053 973 -73
17 -303 54 -342 54 -1 0 -4 132 -7 293 -6 289 -14 371 -51 517 -86 336 -228
557 -448 694 -137 85 -302 137 -497 156 -167 17 -385 -7 -586 -66 l-51 -14
-128 -251 c-70 -139 -141 -272 -156 -296 l-29 -45 24 -37 c35 -54 76 -185 82
-266 15 -189 -93 -423 -249 -542 -117 -90 -242 -133 -387 -133 -257 0 -486
159 -584 408 -26 66 -31 94 -35 192 -5 137 9 207 66 320 71 142 200 254 355
307 73 25 95 28 202 27 94 0 133 -5 179 -21 l58 -21 14 27 c8 14 41 77 72 140
l58 115 -39 138 c-22 75 -43 135 -47 133 -5 -3 -6 3 -3 13 11 45 -112 313
-216 469 -158 236 -403 450 -645 564 -462 216 -1068 208 -1602 -21 -206 -88
-467 -258 -622 -404 -38 -36 -73 -66 -77 -66 -4 0 -46 36 -93 81 -306 290
-704 495 -1112 575 -137 26 -513 24 -486 -4 4 -3 91 -7 194 -8 238 -2 408 -33
622 -115 44 -17 86 -32 93 -33 6 -1 19 -6 27 -11 8 -5 45 -24 81 -41 193 -93
436 -264 607 -428 l72 -69 73 69 c141 136 272 233 432 321 248 136 463 213
710 254 172 29 468 31 628 5 246 -40 461 -128 669 -273 43 -30 81 -54 85 -55
4 0 14 -9 21 -20 7 -10 19 -15 25 -12 7 4 9 3 4 -1 -10 -12 73 -96 87 -88 6 3
8 2 3 -2 -4 -5 10 -27 32 -49 69 -71 176 -224 229 -324 68 -129 114 -251 157
-414 20 -73 39 -140 42 -148 3 -8 7 -22 7 -30 1 -23 -116 -245 -128 -244 -6 1
-38 9 -71 18 -74 20 -219 21 -302 1 -236 -56 -416 -235 -484 -480 -28 -102
-23 -261 11 -370 69 -220 247 -387 476 -445 152 -39 298 -21 462 57 101 47
231 174 284 278 104 202 112 380 24 576 l-42 96 23 34 c13 18 77 140 143 271
67 131 129 242 138 247 9 5 53 19 97 30 44 12 87 25 95 28 8 3 19 5 24 4 5 -1
16 1 25 5 25 11 54 13 211 14 403 5 703 -133 889 -408 104 -154 178 -381 212
-647 13 -101 17 -558 6 -591 -7 -20 -3 -21 95 -28 298 -21 580 -120 795 -280
101 -75 237 -209 309 -306 73 -96 181 -306 219 -423 55 -172 79 -404 64 -621
-8 -133 -13 -162 -55 -352 -13 -61 -24 -114 -24 -117 0 -8 -159 -16 -454 -22
-149 -3 -271 -7 -273 -8 -1 -2 0 -110 4 -240 l6 -237 26 0 c14 0 174 7 356 15
l329 14 28 -32 c56 -65 163 -234 210 -333 226 -474 244 -981 50 -1431 -121
-280 -348 -507 -631 -628 l-83 -35 -206 1 c-114 1 -298 5 -408 8 l-202 6 65
105 c107 174 313 617 313 673 0 8 -71 32 -212 70 -117 32 -216 57 -220 57 -5
0 -8 -5 -8 -11 0 -28 -77 -226 -135 -345 -167 -345 -382 -577 -664 -718 -170
-86 -290 -122 -500 -152 -124 -18 -498 -20 -691 -4 l-124 10 -96 -93 c-156
-154 -332 -289 -535 -412 -109 -66 -336 -185 -354 -185 -5 0 -28 43 -50 95
-23 52 -62 139 -87 192 -57 122 -132 291 -219 496 l-67 157 -457 1 c-251 1
-482 4 -515 8 l-58 6 -22 61 c-33 92 -72 152 -145 225 -76 76 -162 129 -270
167 -67 23 -91 27 -206 27 -146 0 -184 -9 -320 -78 -98 -50 -214 -162 -262
-252 -56 -108 -87 -226 -86 -340 0 -192 57 -332 186 -460 67 -67 99 -91 177
-129 119 -58 217 -80 325 -72 258 19 468 156 568 370 l32 68 384 -6 c212 -3
385 -7 386 -9 17 -20 264 -602 258 -607 -13 -12 -498 -119 -651 -144 -79 -13
-146 -26 -149 -30 -19 -18 125 -421 199 -556 233 -427 634 -797 1138 -1050
195 -98 373 -164 670 -249 202 -58 478 -104 697 -118 57 -3 107 -11 112 -17 5
-6 20 -63 35 -126 157 -690 240 -1046 285 -1225 63 -250 181 -741 181 -754 0
-17 -1234 -16 -1247 2 -11 13 -516 948 -666 1233 -52 98 -125 235 -162 304
-37 69 -124 232 -192 364 -68 131 -147 273 -176 315 -28 42 -106 130 -172 197
-111 112 -133 128 -300 229 -244 147 -318 195 -545 354 -295 205 -417 305
-685 560 -317 302 -527 582 -729 975 -31 60 -58 111 -60 113 -2 2 -42 -25 -89
-61 -244 -184 -544 -301 -884 -346 -132 -18 -421 -7 -535 19 -162 37 -232 62
-373 131 -172 85 -245 139 -401 294 -126 127 -211 243 -298 407 l-46 86 -133
-66 c-161 -82 -318 -133 -527 -172 -88 -17 -328 -17 -420 0 -106 19 -252 66
-345 113 -149 74 -311 219 -408 366 -95 143 -204 397 -225 524 l-7 41 -245 1
c-194 1 -262 5 -325 20 -522 116 -861 456 -936 940 -37 238 42 628 173 851 91
155 224 319 315 389 l50 38 -62 83 c-254 337 -393 797 -356 1175 43 425 301
741 757 925 258 104 581 126 943 64 63 -10 116 -17 118 -15 2 2 -5 48 -16 102
-35 170 -45 283 -45 484 0 216 11 303 55 462 54 193 124 347 201 440 22 26 37
52 33 58 -3 5 -1 10 5 10 7 0 46 32 87 70 139 130 310 213 497 242 48 7 76 16
76 24 0 7 10 15 23 17 12 3 -5 3 -38 0 -144 -10 -354 -86 -481 -173 -116 -80
-260 -252 -333 -399 -41 -80 -105 -271 -126 -374 -45 -224 -45 -573 0 -796 13
-69 23 -126 22 -127 -2 -2 -57 6 -122 17 -177 30 -486 31 -649 1 -346 -64
-645 -241 -837 -494 -93 -124 -158 -273 -190 -433 -23 -115 -17 -396 10 -530
65 -309 189 -590 344 -778 l40 -48 -24 -17 c-116 -81 -231 -220 -338 -407 -28
-49 -51 -84 -51 -78 0 6 -7 19 -16 27 -12 13 -18 14 -28 3 -45 -44 -143 -383
-132 -453 2 -11 0 -23 -4 -29 -3 -5 -7 -21 -8 -35 -1 -18 1 -21 8 -11 4 8 6
21 3 29 -5 12 -2 12 18 2 23 -13 23 -13 6 13 -12 19 -14 28 -5 33 6 4 8 3 5
-3 -4 -6 0 -16 8 -23 13 -10 15 -9 15 10 0 13 2 21 4 19 8 -8 -15 -274 -25
-283 -8 -9 -11 -2 -8 20 0 3 -7 11 -17 18 -9 7 -14 18 -10 24 4 7 2 12 -4 12
-21 0 -2 -190 31 -311 7 -27 16 -39 35 -43 15 -4 22 -11 19 -19 -4 -7 0 -4 8
6 13 16 17 10 41 -56 31 -85 102 -212 156 -277 20 -25 35 -51 33 -57 -3 -7 2
-13 11 -13 17 0 21 -12 9 -23 -3 -4 -17 2 -29 14 l-23 21 6 -21 c3 -12 28 -45
56 -74 28 -28 47 -45 43 -37 -4 8 0 6 9 -5 9 -11 21 -19 26 -17 6 1 8 -2 5 -6
-3 -5 20 -27 52 -49 79 -55 87 -59 78 -42 -4 8 -2 7 6 -2 13 -16 50 -12 49 5
0 13 -35 35 -45 29 -5 -4 -6 -1 -2 5 4 8 21 4 52 -13 72 -39 233 -102 329
-130 49 -14 91 -27 93 -30 3 -2 -7 -10 -22 -16 -14 -7 -26 -16 -26 -20 0 -12
66 -22 81 -13 8 4 10 3 5 -4 -4 -7 -3 -12 3 -12 5 0 12 6 14 13 4 9 6 9 6 0 1
-7 7 -10 15 -7 8 3 17 1 21 -5 3 -6 14 -11 23 -10 14 0 13 2 -3 9 -19 8 -19 9
2 9 12 1 25 -4 28 -9 8 -13 135 -13 135 0 0 6 -8 10 -17 10 -39 0 6 18 57 23
30 3 62 8 70 10 8 3 43 8 76 11 l62 5 17 -67 c23 -95 98 -282 151 -380 57
-104 139 -206 252 -313 170 -161 369 -252 632 -290 110 -16 353 -5 485 21 127
25 311 90 443 156 l103 51 23 -46 c45 -88 183 -286 257 -369 128 -143 332
-298 484 -367 140 -64 369 -126 530 -144 104 -12 324 -5 447 14 283 43 554
148 776 299 63 43 115 76 116 74 2 -2 29 -52 61 -113 192 -364 342 -567 644
-872 304 -307 679 -602 1103 -867 327 -205 421 -272 509 -363 84 -87 152 -175
202 -263 25 -44 26 -46 6 -47 -11 -1 -17 3 -13 9 4 6 1 9 -6 6 -7 -2 -14 -12
-16 -22 -2 -16 106 -243 138 -288 13 -19 44 -26 33 -8 -3 6 3 10 14 10 21 0
28 -12 176 -295 61 -115 65 -128 42 -112 -16 11 -27 13 -27 6 0 -6 -7 -9 -15
-5 -13 5 -13 1 1 -27 9 -17 20 -34 23 -37 4 -3 15 -25 26 -49 11 -24 32 -56
47 -72 30 -29 61 -30 52 -1 -3 9 6 -1 20 -23 29 -45 34 -64 11 -45 -8 6 -19 9
-24 6 -5 -4 -13 -1 -17 5 -4 8 -3 9 4 5 7 -4 12 -1 12 8 0 22 -17 20 -30 -3
-8 -16 -6 -23 7 -33 10 -7 20 -22 21 -33 5 -25 54 -123 152 -300 42 -77 125
-232 184 -345 59 -113 149 -280 199 -372 l92 -167 733 -1 c403 0 731 4 728 8
-3 5 -32 123 -66 263 -33 140 -91 382 -129 539 -69 282 -97 402 -145 615 -33
143 -33 147 -18 152 7 3 10 -1 6 -11 -4 -10 0 -18 10 -22 9 -3 16 -13 16 -21
0 -10 7 -14 20 -10 15 4 20 0 20 -15 0 -10 5 -16 10 -13 6 4 7 11 4 17 -4 6
-2 8 4 4 6 -3 22 -2 36 4 16 6 27 6 31 -1 4 -5 3 -9 -2 -8 -20 3 -34 -2 -28
-11 4 -7 14 -6 28 2 12 7 27 13 32 13 18 2 34 -16 28 -31 -3 -8 0 -14 5 -14
17 0 19 34 2 48 -13 11 -12 12 6 3 24 -11 44 -34 48 -53 2 -7 6 -20 9 -28 4
-8 11 -33 16 -55 5 -22 23 -94 39 -160 17 -66 56 -228 88 -360 32 -132 62
-242 66 -243 5 -2 6 -7 3 -12 -3 -4 6 -57 20 -116 51 -227 104 -453 134 -571
17 -67 31 -129 31 -137 0 -14 -98 -16 -962 -16 l-963 0 -30 58 c-17 31 -122
230 -234 442 -112 212 -258 486 -326 610 -67 124 -155 288 -195 365 -82 158
-88 167 -103 158 -6 -4 -8 0 -4 10 3 10 2 17 -3 17 -5 0 -7 6 -4 13 3 8 -2 20
-11 27 -8 7 -15 20 -15 29 -1 14 -2 14 -14 -1 -17 -23 -26 -23 -26 2 0 11 7
20 15 20 16 0 -65 163 -165 330 -55 91 -70 106 -79 79 -2 -7 1 -9 9 -4 9 6 9
3 0 -14 -13 -25 -36 -23 -34 2 1 9 -2 15 -6 12 -4 -3 -39 50 -76 118 -91 163
-154 225 -339 336 -645 388 -946 608 -1369 995 -167 153 -416 451 -564 674
-20 29 -40 51 -46 48 -311 -137 -547 -198 -891 -227 -353 -30 -722 39 -1050
196 -172 83 -438 275 -561 406 -32 35 -162 193 -170 207 -1 2 -52 -13 -114
-32 -232 -74 -285 -81 -580 -81 -297 0 -339 6 -542 74 -194 65 -366 164 -536
305 -147 123 -312 347 -437 595 -38 76 -36 75 -140 86 -193 20 -445 91 -624
176 -143 68 -293 167 -286 190 3 10 0 21 -6 25 -7 4 -9 3 -5 -4 14 -23 -14
-21 -41 2 -26 23 -26 25 -6 21 13 -2 25 1 28 6 4 5 11 7 16 4 5 -4 9 -3 9 2 0
16 -185 181 -192 170 -4 -6 -3 -18 2 -28 5 -9 7 -19 3 -22 -3 -4 0 -15 8 -24
13 -17 13 -17 -4 -4 -31 24 -170 202 -211 269 -21 35 -35 69 -32 78 3 8 2 12
-4 9 -5 -3 -16 8 -25 24 -11 22 -12 32 -3 37 6 4 8 3 5 -2 -3 -6 -2 -16 4 -24
8 -13 9 -13 9 -1 0 12 3 12 12 3 15 -15 38 -16 38 -1 0 5 -5 7 -12 3 -7 -4 -8
-3 -4 4 4 6 -7 41 -24 78 -63 140 -105 316 -121 514 -21 258 35 576 141 803
28 60 77 138 67 107 -4 -12 3 -16 27 -17 20 0 23 1 9 4 -13 2 -23 9 -23 14 0
6 9 7 21 4 14 -5 19 -3 15 4 -5 7 4 9 26 6 l33 -5 -34 11 c-19 6 -41 18 -48
27 -11 16 -12 16 -13 -2 0 -15 -3 -16 -15 -6 -8 6 -20 8 -26 4 -7 -4 -9 -3 -5
4 3 5 0 12 -6 15 -22 7 34 109 129 241 24 32 43 62 43 66 0 4 -22 46 -49 93
-113 196 -195 435 -226 659 -44 325 -23 598 69 872 72 214 184 395 345 556
169 169 306 261 540 365 222 98 467 157 740 177 l35 3 3 130 c4 176 17 275 57
440 46 185 75 263 157 426 166 324 387 543 703 695 162 78 348 127 586 155
186 21 475 -5 678 -62 41 -11 75 -19 77 -17 1 2 13 23 25 48 40 79 162 262
240 360 348 438 804 689 1305 716 482 27 1096 -173 1531 -498 l52 -39 63 45
c196 136 471 269 726 349 395 125 824 150 1208 70 398 -82 744 -263 1040 -543
55 -52 87 -80 71 -63 -15 17 -26 36 -22 41 13 21 -209 210 -365 310 -159 103
-421 216 -602 261 -213 52 -329 65 -587 66 -191 0 -269 -4 -355 -18 -229 -38
-455 -103 -675 -194 -104 -43 -323 -160 -356 -190 -14 -12 -28 -24 -32 -25 -4
-2 -6 -6 -5 -10 2 -4 -5 -4 -14 -1 -10 4 -14 2 -9 -5 5 -9 -7 -24 -24 -28 -27
-6 -70 -28 -70 -36 0 -5 -5 -6 -10 -3 -6 4 -7 11 -4 17 4 7 2 8 -4 4 -7 -4
-35 17 -68 48 -30 31 -59 55 -62 55 -21 -3 -35 4 -57 26 -26 29 -177 112 -314
174 -188 85 -421 153 -566 165 -65 6 -119 18 -134 30 -12 8 -13 8 -7 -2 6 -10
1 -11 -21 -6 -15 4 -37 11 -48 17 -31 16 -338 18 -433 3z m4693 -536 c3 -5 1
-10 -4 -10 -6 0 -11 5 -11 10 0 6 2 10 4 10 3 0 8 -4 11 -10z m3155 -5200 c0
-5 -5 -10 -11 -10 -5 0 -7 5 -4 10 3 6 8 10 11 10 2 0 4 -4 4 -10z m760 -437
c0 -2 -13 5 -30 17 -16 12 -30 18 -30 13 0 -4 -4 -2 -9 6 -5 8 -11 9 -15 3 -3
-6 8 -15 24 -21 17 -5 30 -17 30 -27 0 -11 6 -15 20 -11 21 5 37 -8 21 -17 -5
-3 0 -23 10 -43 10 -21 19 -45 19 -55 0 -10 3 -17 8 -17 19 3 23 -2 13 -15
-10 -11 -10 -20 0 -38 11 -21 11 -22 -4 -9 -10 7 -17 18 -17 23 0 6 -35 64
-79 128 -43 65 -72 116 -65 113 7 -2 21 0 31 6 15 8 23 4 46 -21 15 -17 27
-33 27 -35z m-14089 -196 c-10 -9 -11 -8 -5 6 3 10 9 15 12 12 3 -3 0 -11 -7
-18z m14553 -40 c-8 -22 -23 -22 -19 1 2 9 4 21 4 27 1 5 5 5 11 -1 6 -6 8
-18 4 -27z m86 -190 c48 -151 88 -342 103 -507 8 -81 16 -125 24 -125 6 0 15
-4 20 -9 5 -5 3 -6 -4 -2 -8 4 -14 2 -15 -6 -1 -14 -5 -30 -8 -38 -1 -3 -3
-13 -5 -23 -4 -20 30 -43 40 -27 4 6 3 10 -2 9 -25 -4 -32 2 -24 24 4 12 6 28
4 35 -3 6 0 12 5 12 21 0 29 -28 29 -97 1 -65 -2 -73 -21 -80 -11 -4 -24 -6
-27 -5 -4 0 -6 -10 -6 -23 0 -14 4 -25 9 -25 5 0 7 4 4 9 -3 5 1 14 9 21 8 7
15 9 15 4 0 -5 5 -2 10 6 7 10 8 -2 5 -40 -12 -128 -28 -210 -44 -222 -14 -12
-14 -11 -2 5 8 10 9 17 3 17 -6 0 -14 9 -17 20 -3 11 -10 20 -13 20 -4 0 -22
-54 -39 -119 -18 -65 -48 -163 -69 -217 -32 -88 -35 -99 -20 -109 9 -7 13 -15
9 -19 -4 -4 0 -4 10 0 24 9 22 4 -23 -89 -57 -120 -183 -302 -200 -292 -4 3
-14 -3 -21 -13 -13 -15 -12 -16 4 -3 10 8 17 9 17 3 0 -19 -164 -184 -256
-258 -113 -90 -237 -172 -329 -215 -38 -19 -71 -34 -71 -34 -1 0 4 -52 12
-115 16 -138 18 -452 4 -570 -55 -444 -213 -827 -474 -1150 -83 -103 -247
-271 -331 -339 -232 -190 -588 -377 -862 -455 -139 -40 -162 -41 -130 -7 8 9
8 12 0 7 -6 -3 -13 -1 -15 5 -3 8 -40 4 -123 -14 -66 -14 -147 -29 -180 -33
-33 -4 -52 -10 -42 -12 9 -2 17 -10 17 -17 0 -8 13 -15 33 -17 18 -2 -3 -7
-49 -11 l-81 -8 1 -37 c1 -33 -2 -37 -21 -34 -18 3 -23 -2 -23 -20 0 -28 39
-206 73 -342 14 -55 24 -103 21 -107 -2 -4 1 -11 7 -15 15 -9 -9 -24 -28 -17
-10 4 -11 9 -3 18 8 9 4 11 -15 7 -15 -2 -25 0 -25 7 0 7 -9 9 -26 5 -23 -6
-25 -4 -20 14 4 12 2 23 -5 28 -7 4 -9 3 -5 -4 3 -6 2 -13 -4 -17 -5 -3 -10
-1 -10 5 0 6 -5 8 -11 4 -8 -5 -8 -1 0 14 13 25 14 45 3 38 -5 -3 -18 3 -29
14 -15 14 -23 16 -32 7 -8 -8 -11 -8 -11 1 0 7 -4 12 -10 12 -5 0 -7 -6 -4
-14 3 -8 0 -17 -7 -22 -8 -5 -10 -3 -4 6 5 8 3 11 -6 8 -17 -6 -49 9 -49 23 0
6 6 9 14 6 8 -3 20 2 28 11 9 11 10 14 1 8 -7 -4 -13 -2 -13 3 0 6 11 11 25
11 14 0 25 -5 25 -11 0 -6 7 -4 15 5 8 8 15 20 15 26 0 6 4 9 9 5 5 -3 12 -1
16 5 3 5 0 10 -9 10 -8 0 -22 3 -31 6 -11 5 -18 0 -22 -14 -4 -19 -7 -19 -36
-7 -18 7 -38 10 -44 8 -8 -3 -13 4 -13 17 0 18 3 20 14 11 18 -15 30 14 16 37
-9 14 -10 13 -5 -5 7 -24 -1 -28 -23 -15 -6 5 -28 64 -47 131 -46 163 -57 194
-66 179 -5 -7 -3 -18 3 -25 8 -10 6 -13 -6 -13 -9 0 -16 6 -16 13 0 8 -4 7
-10 -3 -6 -10 -10 -11 -10 -2 0 8 -18 12 -52 13 -61 1 -175 16 -139 18 23 1
23 2 7 20 -11 12 -27 17 -47 15 -16 -2 -28 0 -25 5 8 12 -47 8 -56 -4 -5 -6
-8 -5 -8 2 0 7 -7 10 -15 7 -8 -4 -15 -2 -15 3 0 10 -4 11 -62 16 -20 1 -40 6
-44 10 -4 4 -14 1 -22 -6 -11 -8 -13 -8 -9 0 5 7 0 9 -13 6 -22 -6 -27 -28 -7
-37 24 -12 -90 6 -194 29 -378 87 -765 240 -1046 415 -462 288 -803 674 -972
1101 -53 134 -100 294 -89 305 4 3 69 17 145 31 134 23 595 127 640 144 l23 8
-19 48 c-10 27 -53 125 -96 218 -42 94 -100 222 -128 286 l-52 116 -215 6
c-118 4 -301 7 -407 7 l-191 0 -17 -49 c-41 -125 -161 -254 -298 -321 -118
-58 -191 -73 -312 -68 -168 9 -309 69 -421 182 -171 171 -229 434 -145 653 76
195 202 326 369 382 344 116 709 -51 818 -376 12 -35 23 -66 26 -68 2 -3 188
-6 414 -7 225 -1 458 -4 517 -7 l108 -6 35 -85 c19 -47 40 -98 46 -115 17 -45
218 -494 279 -622 31 -66 59 -113 67 -113 22 0 271 122 369 181 161 96 379
258 516 384 l135 124 118 -9 c159 -13 477 -12 605 0 219 22 464 88 599 162
162 89 304 201 412 323 81 93 116 144 197 291 59 104 172 359 186 417 4 15 10
27 13 27 2 0 35 -8 71 -19 36 -10 113 -31 171 -47 58 -15 106 -29 108 -30 6
-4 -100 -258 -154 -371 -30 -61 -97 -182 -150 -269 -52 -86 -93 -158 -92 -159
2 -2 208 -4 458 -6 l455 -4 100 46 c119 55 227 122 310 192 33 29 53 43 45 32
-8 -11 -22 -26 -30 -33 -13 -10 -10 -11 14 -6 21 5 27 4 22 -5 -11 -16 -2 -14
23 8 13 11 26 21 30 23 3 2 27 28 51 58 25 30 47 57 51 60 16 15 61 82 89 134
30 54 28 61 -9 32 -14 -11 -41 -17 -41 -10 0 2 17 39 39 82 21 42 49 105 62
140 13 34 28 62 32 62 5 0 5 -4 2 -10 -3 -5 -4 -14 -1 -19 7 -11 56 10 54 24
0 6 7 28 16 49 27 60 54 198 67 337 21 221 -14 505 -90 748 -11 36 -18 68 -15
72 2 4 0 9 -5 11 -5 1 -11 12 -13 23 -3 18 3 20 47 20 40 0 50 3 49 17 -1 11
8 18 27 20 32 5 36 -1 17 -22 -11 -12 -10 -12 3 -2 9 6 20 8 24 4 5 -4 5 1 2
11 -4 9 -3 17 2 17 5 0 12 12 16 27 5 21 8 24 16 12 6 -9 9 -10 9 -1 0 6 7 12
15 12 9 0 18 7 22 16 10 26 40 -35 83 -169z m-320 83 c0 -5 -4 -10 -9 -10 -6
0 -13 5 -16 10 -3 6 1 10 9 10 9 0 16 -4 16 -10z m9 -330 c0 -9 -4 -8 -9 5 -5
11 -9 27 -9 35 0 9 4 8 9 -5 5 -11 9 -27 9 -35z m-13634 -775 c-2 -14 1 -23 6
-19 5 3 6 10 3 16 -4 7 -2 8 4 4 27 -17 -6 -44 -34 -28 -12 7 -12 11 2 30 19
28 22 28 19 -3z m13640 -155 c-3 -5 -12 -10 -18 -10 -7 0 -6 4 3 10 19 12 23
12 15 0z m2 -26 c-3 -3 -12 -4 -19 -1 -8 3 -5 6 6 6 11 1 17 -2 13 -5z
m-13916 -141 c13 -16 12 -17 -3 -4 -10 7 -18 15 -18 17 0 8 8 3 21 -13z m1064
-33 c14 -7 8 -8 -20 -3 -22 3 -42 7 -44 9 -9 8 45 2 64 -6z m-104 -28 c-7 -2
-18 1 -23 6 -8 8 -4 9 13 5 13 -4 18 -8 10 -11z m9286 -3708 c-3 -3 -12 -4
-19 -1 -8 3 -5 6 6 6 11 1 17 -2 13 -5z m175 -7 c15 0 25 -3 22 -8 -3 -5 -24
-7 -47 -5 -23 2 -58 5 -77 6 l-35 3 35 7 c19 4 44 5 55 2 11 -3 32 -5 47 -5z
m318 -78 c0 -5 -6 -9 -14 -9 -11 0 -12 -8 -5 -37 12 -55 9 -64 -6 -18 -19 56
-18 71 5 72 11 1 20 -2 20 -8z m455 -356 c3 -21 9 -49 12 -63 6 -24 6 -24 -12
-7 -9 10 -25 16 -34 12 -9 -3 -6 3 7 13 l23 18 -25 12 c-27 12 -27 42 1 42 8
0 11 5 7 12 -4 6 -3 8 3 5 6 -4 14 -24 18 -44z m-318 11 c-3 -3 -12 -4 -19 -1
-8 3 -5 6 6 6 11 1 17 -2 13 -5z m0 -76 c-3 -8 -6 -5 -6 6 -1 11 2 17 5 13 3
-3 4 -12 1 -19z m87 7 c-4 -8 -11 -15 -16 -15 -6 0 -5 6 2 15 7 8 14 15 16 15
2 0 1 -7 -2 -15z m39 -12 c-7 -2 -19 -2 -25 0 -7 3 -2 5 12 5 14 0 19 -2 13
-5z m214 -55 c-3 -8 -6 -5 -6 6 -1 11 2 17 5 13 3 -3 4 -12 1 -19z m-2583
-120 c-3 -4 5 -8 18 -9 13 0 18 -3 12 -5 -17 -7 6 -52 29 -60 10 -3 16 -8 13
-11 -3 -3 -1 -15 5 -26 8 -14 8 -18 0 -13 -6 4 -11 2 -11 -3 0 -6 5 -11 12
-11 6 0 8 -3 5 -7 -4 -3 2 -16 13 -28 12 -12 20 -26 19 -31 -3 -20 2 -35 11
-29 5 3 7 13 4 23 -5 14 -3 14 10 -2 8 -10 13 -22 11 -27 -3 -4 -1 -10 5 -14
5 -3 10 -12 10 -18 0 -7 -4 -6 -10 3 -17 27 -22 2 -5 -29 8 -17 14 -31 11 -31
-2 0 -24 37 -49 83 -24 45 -65 121 -91 168 -32 60 -41 86 -31 86 8 0 12 -4 9
-9z m2233 -100 c-3 -7 -5 -2 -5 12 0 14 2 19 5 13 2 -7 2 -19 0 -25z m310 10
c-3 -8 -6 -5 -6 6 -1 11 2 17 5 13 3 -3 4 -12 1 -19z m-42 -18 c3 -5 -3 -10
-14 -10 -11 0 -23 5 -26 10 -3 6 3 10 14 10 11 0 23 -4 26 -10z m-1950 -180
c14 -27 14 -29 0 -23 -9 3 -14 8 -11 11 3 2 1 13 -5 23 -5 11 -7 19 -5 19 3 0
12 -13 21 -30z m390 -720 c3 -5 1 -10 -4 -10 -6 0 -11 5 -11 10 0 6 2 10 4 10
3 0 8 -4 11 -10z m1924 -53 c1 -5 -3 -5 -9 -2 -5 3 -10 16 -9 28 0 21 1 21 9
2 5 -11 9 -24 9 -28z"/>
<path d="M17054 10858 c-3 -4 -1 -8 5 -8 6 0 19 -10 30 -21 19 -21 20 -21 15
-2 -5 17 -1 20 22 19 15 0 29 4 31 9 4 12 -96 15 -103 3z"/>
<path d="M17485 10037 c-9 -44 7 -71 23 -41 7 13 6 28 -3 49 l-12 30 -8 -38z"/>
<path d="M17482 9900 c0 -14 2 -19 5 -12 2 6 2 18 0 25 -3 6 -5 1 -5 -13z"/>
<path d="M17470 9800 c8 -5 20 -10 25 -10 6 0 3 5 -5 10 -8 5 -19 10 -25 10
-5 0 -3 -5 5 -10z"/>
<path d="M17039 9563 c-13 -16 -12 -17 4 -4 9 7 17 15 17 17 0 8 -8 3 -21 -13z"/>
<path d="M17027 9534 c-3 -3 -3 -13 0 -21 5 -12 7 -12 14 -1 15 23 4 40 -14
22z"/>
<path d="M17005 9480 c-4 -6 -12 -8 -18 -4 -7 3 -3 -2 7 -10 11 -9 14 -16 8
-16 -7 0 -12 -5 -12 -11 0 -8 5 -7 15 1 9 7 13 15 10 18 -3 3 0 11 6 19 8 9 8
13 1 13 -6 0 -14 -5 -17 -10z"/>
<path d="M14180 5705 c0 -8 2 -15 4 -15 2 0 6 7 10 15 3 8 1 15 -4 15 -6 0
-10 -7 -10 -15z"/>
<path d="M14218 5713 c7 -3 16 -2 19 1 4 3 -2 6 -13 5 -11 0 -14 -3 -6 -6z"/>
<path d="M14045 5370 c-3 -5 1 -10 10 -10 9 0 13 5 10 10 -3 6 -8 10 -10 10
-2 0 -7 -4 -10 -10z"/>
<path d="M14040 5335 c7 -8 18 -15 24 -14 7 0 6 2 -2 6 -6 2 -10 9 -6 14 3 5
-2 9 -12 9 -13 0 -14 -3 -4 -15z"/>
<path d="M14150 5299 c-13 -9 -12 -10 3 -5 9 3 17 1 17 -4 0 -6 4 -10 10 -10
5 0 7 7 4 15 -7 18 -14 18 -34 4z"/>
<path d="M14118 5273 c7 -3 16 -2 19 1 4 3 -2 6 -13 5 -11 0 -14 -3 -6 -6z"/>
<path d="M14145 5250 c-3 -5 -1 -10 4 -10 6 0 11 5 11 10 0 6 -2 10 -4 10 -3
0 -8 -4 -11 -10z"/>
<path d="M11836 4917 c3 -10 9 -15 12 -12 3 3 0 11 -7 18 -10 9 -11 8 -5 -6z"/>
<path d="M8100 16874 c-285 -84 -560 -307 -763 -620 -80 -123 -104 -171 -202
-401 l-78 -182 61 -103 c156 -266 240 -393 258 -391 11 1 53 12 94 23 112 32
253 24 373 -20 197 -72 337 -232 387 -443 31 -131 24 -238 -27 -367 -61 -154
-162 -262 -318 -339 -101 -49 -168 -64 -275 -64 -171 1 -301 55 -427 176 -70
67 -91 96 -129 171 -46 94 -74 197 -74 277 0 100 44 251 97 329 12 19 23 41
23 49 0 7 -22 43 -49 80 -93 126 -397 613 -456 731 -15 30 -29 57 -30 58 -17
19 -445 53 -445 36 0 -12 2 -12 160 -18 123 -4 231 -28 267 -58 8 -6 39 -60
69 -120 64 -124 199 -342 338 -546 53 -78 99 -147 102 -156 3 -8 -7 -33 -21
-56 -56 -89 -77 -165 -82 -300 -6 -149 8 -214 70 -335 55 -107 173 -226 274
-278 141 -73 300 -94 460 -61 145 30 274 107 367 221 115 138 162 280 153 463
-7 176 -66 310 -188 431 -183 184 -465 245 -700 154 -12 -4 -24 6 -45 39 -16
25 -32 46 -36 46 -5 0 -8 6 -8 13 0 8 -46 90 -102 183 l-101 169 27 75 c15 41
29 89 31 105 3 36 25 85 38 85 5 0 6 7 3 16 -3 8 -2 13 3 10 4 -3 39 55 77
129 37 74 92 167 122 207 75 103 199 244 244 279 21 17 35 36 32 41 -4 6 -3 8
3 5 5 -4 19 4 30 16 36 39 67 60 101 68 4 1 23 12 43 24 59 38 170 91 247 119
154 55 156 75 2 30z m-1853 -1010 c-3 -3 -12 -4 -19 -1 -8 3 -5 6 6 6 11 1 17
-2 13 -5z"/>
<path d="M13080 16716 c0 -2 8 -10 18 -17 15 -13 16 -12 3 4 -13 16 -21 21
-21 13z"/>
<path d="M6078 15843 c7 -3 16 -2 19 1 4 3 -2 6 -13 5 -11 0 -14 -3 -6 -6z"/>
<path d="M6298 15843 c7 -3 16 -2 19 1 4 3 -2 6 -13 5 -11 0 -14 -3 -6 -6z"/>
<path d="M10340 15735 c-78 -22 -186 -75 -250 -124 -110 -83 -205 -237 -236
-381 -22 -103 -15 -283 14 -363 68 -188 230 -346 422 -412 74 -25 100 -29 195
-29 107 0 149 10 265 58 11 4 20 -5 32 -32 32 -69 170 -387 188 -432 10 -25
37 -85 60 -135 23 -49 95 -214 160 -366 65 -152 151 -344 191 -428 l73 -152
-13 -62 c-12 -58 -81 -349 -200 -847 -28 -113 -70 -297 -95 -410 -25 -113 -54
-234 -63 -269 l-18 -63 -160 -63 c-88 -35 -290 -114 -450 -175 -325 -125 -766
-298 -1265 -495 -313 -125 -579 -229 -832 -328 l-108 -42 -75 -190 c-41 -104
-79 -202 -84 -216 -9 -26 -12 -26 -113 -31 -175 -8 -334 -82 -455 -211 -236
-252 -231 -668 10 -911 81 -82 170 -136 285 -174 62 -19 98 -25 182 -25 112 0
157 8 260 50 189 76 318 213 388 412 23 66 27 91 26 196 0 103 -4 131 -26 196
-34 98 -88 189 -149 252 -27 28 -49 52 -49 55 0 2 11 28 25 58 14 30 38 90 55
133 l30 78 98 40 c349 145 1175 479 1427 578 165 65 455 181 645 258 190 77
355 140 368 141 20 1 33 -22 113 -189 50 -104 139 -298 199 -430 60 -132 147
-325 194 -428 46 -104 86 -191 88 -192 2 -2 69 2 148 10 80 8 316 31 525 50
209 20 395 38 412 41 26 5 34 2 39 -12 3 -11 25 -57 47 -104 59 -121 168 -231
287 -288 153 -74 302 -91 453 -53 313 81 520 339 519 651 0 189 -61 340 -192
471 -136 136 -316 206 -510 196 -179 -9 -341 -85 -462 -215 -48 -53 -111 -159
-131 -223 -4 -13 -26 -17 -105 -22 -56 -4 -242 -20 -414 -37 -172 -16 -325
-30 -341 -30 -31 0 -14 -32 -197 370 -122 268 -257 555 -298 637 l-32 62 14
68 c8 37 36 154 61 258 25 105 59 249 75 320 16 72 54 231 83 355 30 124 79
327 108 452 52 224 55 232 94 240 20 4 135 47 404 152 151 59 280 105 287 104
7 -2 227 -216 489 -477 l477 -474 -18 -61 c-29 -97 -25 -269 9 -364 37 -106
82 -177 162 -257 149 -149 336 -214 542 -188 163 21 272 73 387 188 114 113
176 239 196 398 19 156 -16 304 -105 436 -94 140 -245 244 -405 277 -155 33
-340 4 -467 -73 -31 -18 -58 -33 -60 -33 -3 0 -91 87 -197 193 -105 107 -354
359 -554 560 l-363 367 -402 -161 c-221 -88 -423 -169 -450 -180 l-47 -19 -10
23 c-48 116 -225 527 -285 661 -75 167 -291 666 -346 798 l-28 67 19 38 c25
51 53 162 47 185 -3 10 -2 20 2 23 14 8 12 131 -3 206 -48 229 -216 418 -445
496 -96 33 -283 42 -371 18z m295 -30 c244 -51 433 -244 491 -501 26 -121 9
-249 -57 -410 -11 -29 -8 -41 58 -195 107 -247 255 -587 413 -949 79 -179 155
-354 171 -390 23 -54 32 -65 51 -64 13 1 84 26 158 56 74 31 182 74 240 96 58
23 188 75 290 117 102 41 190 75 196 75 5 0 261 -254 568 -565 l558 -565 27
19 c14 10 53 32 86 49 185 93 360 92 552 -4 75 -37 105 -59 166 -124 186 -194
229 -463 112 -706 -43 -89 -169 -222 -250 -266 -69 -37 -208 -72 -252 -63 -25
4 -39 2 -45 -7 -7 -9 -8 -6 -5 10 6 24 -7 30 -20 9 -10 -17 -41 -29 -47 -18
-3 5 -18 7 -33 5 -19 -2 -15 0 10 7 59 17 50 32 -26 43 -26 3 -35 1 -31 -6 5
-7 2 -9 -8 -5 -24 9 -30 -4 -10 -19 15 -12 13 -13 -18 -7 -106 19 -182 66
-282 172 -75 80 -122 160 -152 260 -23 80 -22 242 4 323 l20 63 -497 493
c-408 404 -501 491 -518 486 -11 -3 -171 -66 -355 -139 -184 -74 -347 -137
-362 -140 -15 -4 -29 -13 -32 -20 -16 -43 -335 -1390 -386 -1635 l-12 -55 97
-205 c144 -306 143 -304 280 -605 70 -154 130 -284 134 -288 7 -7 255 11 456
33 84 9 454 40 482 40 7 0 13 10 13 23 0 34 62 155 109 214 49 61 122 107 153
98 20 -7 38 7 38 30 0 6 -4 4 -9 -4 -5 -7 -15 -11 -22 -9 -9 3 -2 11 18 21 28
15 33 15 47 2 10 -11 17 -12 22 -4 3 6 1 15 -6 19 -8 5 -7 9 5 14 9 3 22 3 27
-1 6 -3 8 -2 5 4 -8 12 79 33 139 33 24 0 44 -4 44 -10 0 -5 8 -6 18 -3 15 6
15 5 4 -10 -12 -14 -11 -17 10 -21 43 -8 69 -5 62 7 -3 7 2 3 10 -7 9 -11 16
-17 16 -14 0 3 23 -1 51 -8 58 -15 77 -10 54 13 -25 24 -12 25 46 3 69 -26
175 -104 219 -161 18 -24 27 -38 20 -31 -22 19 -29 14 -25 -18 4 -33 18 -62
28 -61 27 4 37 0 31 -11 -5 -8 0 -7 11 2 17 14 18 13 13 -2 -4 -9 -1 -19 7
-21 7 -3 23 -36 36 -74 21 -58 24 -87 24 -203 0 -146 -12 -198 -72 -307 -44
-80 -176 -203 -263 -246 -173 -84 -360 -92 -529 -23 -165 67 -295 205 -352
374 -11 34 -24 62 -28 62 -19 0 -338 -31 -456 -45 -71 -8 -227 -24 -345 -35
-118 -11 -236 -22 -261 -26 l-47 -6 -47 99 c-26 54 -73 157 -105 228 -32 72
-92 203 -134 293 -42 90 -76 165 -76 168 0 2 -52 110 -115 240 -77 159 -119
235 -127 231 -23 -10 -329 -133 -463 -187 -255 -102 -702 -279 -815 -323 -63
-25 -288 -116 -500 -202 -212 -86 -480 -194 -596 -241 l-211 -85 -61 -158
c-34 -87 -62 -161 -62 -165 0 -4 16 -21 36 -38 37 -33 110 -131 138 -186 27
-53 56 -182 56 -254 0 -275 -167 -504 -437 -599 -84 -30 -230 -36 -325 -15
-231 51 -416 226 -473 446 -19 74 -22 234 -5 305 17 71 85 210 115 233 13 11
21 22 18 26 -3 3 -1 6 5 6 5 0 12 -5 14 -10 5 -15 48 27 48 47 0 14 -2 14 -20
-2 -11 -10 -20 -16 -20 -13 0 2 12 15 27 29 14 13 23 18 19 12 -4 -7 -3 -13 3
-13 5 0 16 -3 24 -6 10 -3 18 2 22 17 6 17 9 19 16 8 7 -11 9 -11 9 3 0 11 5
15 15 12 12 -5 14 0 9 23 -5 25 -1 31 33 50 70 40 186 65 280 62 l86 -3 79
204 c43 113 83 215 88 226 7 17 73 47 292 134 156 61 423 167 593 235 171 68
427 169 570 225 143 56 355 140 470 186 116 45 253 98 305 117 93 34 506 195
565 221 l31 14 83 353 c45 195 116 496 157 669 41 173 84 356 95 405 11 50 29
126 39 169 l19 79 -39 77 c-35 69 -72 153 -240 535 -26 61 -103 238 -170 395
-109 252 -250 564 -262 576 -3 2 -27 -7 -56 -21 -80 -38 -132 -48 -244 -43
-168 7 -302 66 -422 184 -154 153 -219 377 -168 580 55 219 175 363 371 445
120 50 245 61 376 34z m2865 -5179 c0 -2 -7 -7 -16 -10 -8 -3 -12 -2 -9 4 6
10 25 14 25 6z m75 -6 c3 -5 2 -10 -4 -10 -5 0 -13 5 -16 10 -3 6 -2 10 4 10
5 0 13 -4 16 -10z"/>
<path d="M14093 12463 c9 -2 25 -2 35 0 9 3 1 5 -18 5 -19 0 -27 -2 -17 -5z"/>
<path d="M13973 12441 c-59 -22 -135 -62 -128 -69 2 -2 12 -1 22 3 21 10 19 9
63 19 19 5 52 16 72 26 20 10 40 15 43 12 3 -3 13 -7 21 -8 13 -2 13 0 -2 17
-21 23 -25 23 -91 0z"/>
<path d="M14205 12451 c-19 -8 -19 -8 3 -15 12 -4 36 -4 53 -1 22 5 29 4 25
-4 -4 -6 -2 -12 3 -12 15 -2 22 -4 51 -16 30 -12 110 -25 110 -18 0 10 -97 53
-149 66 -43 11 -55 11 -59 1 -2 -6 -8 -12 -13 -12 -6 0 -7 5 -4 10 7 11 7 11
-20 1z"/>
<path d="M13640 12248 c0 -4 -10 -8 -22 -8 -46 0 -78 -4 -78 -9 1 -12 46 -59
68 -70 18 -10 22 -9 22 4 0 10 -5 14 -12 10 -7 -4 -3 2 9 12 29 24 47 70 27
70 -8 0 -14 -4 -14 -9z"/>
<path d="M11291 11974 c-6 -22 -47 -192 -91 -378 -45 -187 -83 -344 -86 -348
-3 -5 -18 -14 -32 -20 -22 -8 -301 -116 -509 -196 -50 -19 -57 -37 -13 -28 19
3 29 2 25 -4 -3 -6 -1 -10 4 -10 6 0 11 -9 11 -19 0 -10 6 -21 14 -24 10 -4
12 0 8 16 -5 22 -5 22 16 3 12 -10 30 -16 40 -14 15 4 18 1 15 -21 -3 -25 -3
-25 6 -3 11 24 27 31 17 7 -3 -8 -1 -15 5 -15 6 0 7 -4 4 -10 -4 -6 8 -10 27
-11 l33 -1 -30 -8 -30 -8 27 -1 c15 0 30 4 33 9 12 20 26 10 14 -11 -8 -15 -8
-19 0 -15 6 4 14 0 17 -9 8 -19 14 -17 157 43 72 30 103 48 95 54 -10 6 -10
10 2 18 18 12 36 7 32 -9 -1 -7 2 -10 8 -6 6 3 8 11 5 16 -4 5 0 9 7 10 7 0
21 2 31 4 15 3 16 1 6 -11 -11 -13 -9 -14 14 -3 15 7 24 16 20 22 -3 6 -1 7 5
3 6 -4 9 -13 6 -21 -4 -8 3 -15 18 -18 17 -3 15 -5 -9 -6 -32 -1 -43 -14 -23
-26 6 -3 10 -2 10 4 0 5 9 9 20 8 13 -1 19 -6 15 -15 -3 -8 4 -26 15 -42 11
-15 20 -36 20 -46 0 -16 -1 -16 -15 2 -8 10 -15 15 -15 10 0 -11 -30 14 -30
26 0 5 6 6 13 2 7 -4 9 -3 4 2 -5 5 -13 9 -17 9 -5 0 -16 9 -25 20 -11 13 -9
6 4 -20 11 -22 36 -74 54 -115 77 -172 87 -187 113 -182 22 4 26 9 23 28 0 4
5 11 13 15 10 7 9 9 -4 9 -10 0 -18 5 -18 10 0 6 5 10 10 10 6 0 10 7 10 15 0
9 9 15 21 15 17 0 19 3 10 13 -8 10 -7 19 4 33 14 18 14 18 10 -3 -4 -23 9
-31 20 -13 4 6 10 8 15 5 10 -6 50 14 62 30 5 6 8 5 8 -2 0 -7 4 -13 10 -13 9
0 -38 110 -129 302 l-41 88 26 122 c14 68 45 202 69 298 24 96 53 224 65 284
21 103 21 109 4 125 -9 9 -14 10 -10 4 5 -9 0 -13 -13 -13 -12 0 -21 4 -21 9
0 5 -9 12 -20 15 -11 3 -30 9 -41 12 -14 4 -19 2 -15 -5 4 -6 0 -11 -8 -11 -9
0 -16 5 -16 10 0 6 -17 10 -38 10 -21 0 -43 5 -49 11 -9 9 -14 2 -22 -27z
m-186 -964 c3 -5 -1 -10 -9 -10 -9 0 -16 5 -16 10 0 6 4 10 9 10 6 0 13 -4 16
-10z m65 -5 c0 -10 -40 -10 -43 0 -4 8 3 10 19 7 13 -2 24 -6 24 -7z m-128
-57 c-7 -7 -12 -8 -12 -2 0 14 12 26 19 19 2 -3 -1 -11 -7 -17z m293 -98 c3
-6 -1 -7 -9 -4 -18 7 -21 14 -7 14 6 0 13 -4 16 -10z m45 -80 c0 -5 -7 -7 -15
-4 -8 4 -15 8 -15 10 0 2 7 4 15 4 8 0 15 -4 15 -10z"/>
<path d="M14123 11335 c0 -8 4 -12 9 -9 4 3 8 9 8 15 0 5 -4 9 -8 9 -5 0 -9
-7 -9 -15z"/>
<path d="M14205 11330 c3 -5 8 -10 11 -10 2 0 4 5 4 10 0 6 -5 10 -11 10 -5 0
-7 -4 -4 -10z"/>
<path d="M10143 10862 c-69 -24 -99 -40 -93 -46 7 -7 17 -6 30 2 17 10 20 10
21 -5 0 -14 2 -15 6 -3 7 18 33 44 33 34 0 -5 5 -3 12 4 9 9 15 9 25 0 11 -9
13 -8 11 1 -2 8 6 15 16 17 16 2 60 35 46 33 -3 0 -51 -17 -107 -37z"/>
<path d="M10388 10673 c7 -3 16 -2 19 1 4 3 -2 6 -13 5 -11 0 -14 -3 -6 -6z"/>
<path d="M14026 10137 c3 -10 9 -15 12 -12 3 3 0 11 -7 18 -10 9 -11 8 -5 -6z"/>
<path d="M4940 13010 c-308 -49 -531 -296 -547 -605 -6 -127 13 -222 67 -333
67 -134 200 -261 328 -311 88 -35 208 -54 292 -47 167 14 302 71 411 174 l67
63 130 -80 c240 -146 777 -483 809 -507 17 -13 84 -57 147 -98 l116 -74 93 25
c50 14 355 99 677 189 l585 165 30 -38 c144 -182 407 -277 635 -229 116 24
264 102 343 181 145 143 222 390 183 590 -49 250 -243 458 -486 520 -85 22
-236 22 -320 0 -123 -31 -227 -90 -310 -174 -118 -119 -180 -257 -183 -407
l-2 -75 -40 -10 c-22 -6 -96 -26 -165 -44 -69 -18 -315 -85 -546 -149 l-421
-115 -134 87 c-74 48 -155 101 -181 117 -123 77 -433 275 -518 330 -52 34
-138 88 -191 121 l-96 59 -6 85 c-19 256 -196 480 -448 564 -86 29 -229 40
-319 26z m280 -56 c189 -56 351 -205 417 -384 24 -64 46 -194 38 -221 -4 -12
2 -23 17 -32 13 -8 111 -70 218 -139 107 -68 216 -136 243 -151 26 -15 47 -32
47 -38 0 -6 5 -7 10 -4 6 3 10 2 10 -3 0 -5 17 -17 37 -28 20 -10 45 -26 55
-34 10 -8 35 -24 56 -35 42 -23 234 -147 366 -237 l90 -61 65 17 c94 24 374
101 521 143 114 32 240 66 525 142 l100 26 7 80 c7 76 25 160 27 123 1 -10 5
-18 10 -18 6 0 8 9 6 20 -2 11 1 19 8 17 15 -3 22 53 9 62 -14 9 30 98 74 149
19 23 40 39 46 36 6 -4 8 -2 5 3 -9 14 87 86 161 123 65 32 122 47 122 32 0
-12 39 -4 59 12 11 8 13 8 7 -2 -6 -10 4 -12 46 -10 29 2 55 6 58 9 9 10 70
19 70 10 0 -5 9 -7 20 -4 10 3 45 -3 77 -12 180 -55 342 -219 400 -404 38
-120 39 -272 4 -380 -31 -93 -101 -201 -175 -269 -66 -60 -211 -134 -294 -151
-64 -13 -192 -14 -192 -2 0 5 -9 7 -21 4 -36 -10 -188 47 -266 100 -42 28 -70
53 -67 59 4 6 3 8 -3 5 -11 -7 -52 33 -79 79 l-19 31 -250 -72 c-137 -40 -297
-86 -355 -103 -58 -16 -193 -54 -300 -85 -107 -30 -256 -72 -330 -92 l-135
-37 -90 60 c-110 74 -544 353 -640 412 -38 23 -164 99 -279 168 l-209 125 -30
-37 c-59 -74 -205 -161 -320 -192 -68 -18 -216 -18 -294 1 -194 46 -351 180
-432 372 -71 166 -60 348 34 533 32 63 140 175 209 215 150 88 351 115 506 69z"/>
<path d="M8550 12498 c-87 -19 -60 -26 94 -25 86 1 158 -1 160 -6 3 -4 3 -2 2
5 -6 30 -165 46 -256 26z"/>
<path d="M6066 11721 c-6 -8 28 -32 264 -181 63 -40 187 -120 275 -178 l159
-104 56 12 c30 7 154 41 275 75 121 35 290 82 375 106 158 44 255 77 233 80
-16 2 -17 2 -73 18 -25 8 -58 15 -75 16 -16 2 -48 6 -70 10 -22 3 -65 8 -95
11 -126 10 -176 15 -200 21 -14 3 -29 7 -35 8 -5 1 -12 3 -15 5 -20 11 -73 4
-187 -27 l-132 -35 -77 48 c-51 33 -85 48 -101 46 -17 -3 -23 0 -18 8 4 7 -4
10 -27 8 -19 -1 -40 2 -47 7 -8 4 -57 10 -110 13 -53 2 -104 5 -113 5 -10 1
-18 5 -18 9 0 4 -31 7 -70 7 -38 0 -74 2 -79 5 -5 4 -12 2 -16 -3 -3 -6 -15
-7 -28 -2 -12 4 -28 6 -36 3 -8 -3 -11 0 -7 7 4 6 5 11 2 11 -3 0 -7 -4 -10
-9z"/>
<path d="M3020 12076 c0 -14 107 -233 136 -277 17 -26 17 -27 -28 -85 -49 -64
-131 -190 -140 -214 -8 -22 18 -45 29 -26 11 19 89 6 85 -15 -3 -11 -1 -12 9
-1 7 6 22 12 34 13 12 0 4 6 -20 14 -22 7 -38 14 -35 15 19 7 129 6 124 -1 -3
-5 7 -14 21 -19 34 -13 45 -13 45 1 0 5 -4 7 -10 4 -6 -4 -7 1 -3 11 4 11 8
13 11 6 2 -7 8 -10 13 -6 5 3 9 2 8 -3 -7 -40 15 -43 35 -5 8 15 62 79 119
142 l104 115 -55 78 c-30 44 -76 118 -102 165 l-47 87 -44 1 c-24 1 -68 3 -97
4 -28 2 -55 1 -58 -2 -3 -3 -17 -3 -32 1 -15 4 -42 4 -59 0 -19 -4 -30 -3 -27
2 3 5 0 9 -5 9 -6 0 -11 -6 -11 -14z m40 -570 c0 -3 -4 -8 -10 -11 -5 -3 -10
-1 -10 4 0 6 5 11 10 11 6 0 10 -2 10 -4z"/>
<path d="M17036 11545 c-4 -13 -2 -14 14 -5 23 13 26 20 6 20 -8 0 -16 -7 -20
-15z"/>
<path d="M17140 11406 c0 -2 8 -10 18 -17 15 -13 16 -12 3 4 -13 16 -21 21
-21 13z"/>
<path d="M3057 10689 c-10 -37 -8 -71 3 -64 6 4 8 10 5 15 -3 5 1 12 9 17 12
7 12 12 2 32 l-13 23 -6 -23z"/>
<path d="M3091 10584 c0 -11 3 -14 6 -6 3 7 2 16 -1 19 -3 4 -6 -2 -5 -13z"/>
<path d="M3130 10170 c0 -5 7 -10 16 -10 8 0 12 5 9 10 -3 6 -10 10 -16 10 -5
0 -9 -4 -9 -10z"/>
<path d="M3181 10144 c0 -11 3 -14 6 -6 3 7 2 16 -1 19 -3 4 -6 -2 -5 -13z"/>
<path d="M3315 9861 c-3 -5 0 -13 6 -17 7 -4 9 -3 5 4 -3 5 0 13 6 15 9 4 10
6 1 6 -6 1 -14 -3 -18 -8z"/>
<path d="M3350 9866 c0 -2 7 -7 16 -10 8 -3 12 -2 9 4 -6 10 -25 14 -25 6z"/>
<path d="M3050 9606 c0 -8 12 -28 26 -43 23 -23 25 -24 15 -5 -7 12 -9 28 -5
34 5 8 2 9 -10 5 -14 -5 -17 -3 -12 8 3 8 1 15 -4 15 -6 0 -10 -7 -10 -14z"/>
<path d="M4425 9399 c-4 -5 -11 -7 -16 -4 -5 4 -9 2 -9 -4 0 -5 11 -8 25 -7
31 3 40 12 21 19 -9 4 -18 2 -21 -4z"/>
<path d="M12181 4903 c7 -12 15 -20 18 -17 3 2 -3 12 -13 22 -17 16 -18 16 -5
-5z"/>
<path d="M14120 4869 c0 -5 5 -7 10 -4 6 3 10 8 10 11 0 2 -4 4 -10 4 -5 0
-10 -5 -10 -11z"/>
<path d="M12305 4650 c3 -5 8 -10 11 -10 2 0 4 5 4 10 0 6 -5 10 -11 10 -5 0
-7 -4 -4 -10z"/>
</g>
</svg>
